<?xml version="1.0" standalone="no"?>
<!DOCTYPE svg PUBLIC "-//W3C//DTD SVG 20010904//EN"
 "http://www.w3.org/TR/2001/REC-SVG-20010904/DTD/svg10.dtd">
<svg version="1.0" xmlns="http://www.w3.org/2000/svg"
 width="32.000000pt" height="32.000000pt" viewBox="0 0 32.000000 32.000000"
 preserveAspectRatio="xMidYMid meet">
<metadata>
Created by potrace 1.16, written by Peter Selinger 2001-2019
</metadata>
<g transform="translate(0.000000,32.000000) scale(0.003194,-0.006723)"
fill="#000000" stroke="none">
<path d="M1510 4083 c-48 -9 -144 -46 -224 -86 -109 -55 -342 -210 -421 -280
-11 -10 -39 -33 -62 -50 -68 -52 -294 -286 -346 -359 -108 -153 -122 -226 -65
-338 60 -116 232 -270 301 -270 37 0 128 64 247 174 25 22 92 84 150 136 57
52 114 103 125 114 95 87 291 233 365 271 42 22 127 45 134 37 12 -12 5 -62
-16 -113 -23 -56 -99 -207 -136 -271 -12 -21 -30 -53 -40 -70 -108 -190 -391
-631 -542 -843 -31 -44 -113 -159 -181 -255 -68 -96 -129 -182 -136 -190 -6
-8 -27 -35 -45 -60 -117 -156 -166 -216 -197 -239 -77 -59 -100 -84 -121 -129
-21 -43 -22 -52 -11 -107 17 -88 48 -160 105 -245 111 -167 304 -329 423 -355
27 -5 52 3 147 49 63 31 117 56 120 56 3 0 34 13 68 28 35 16 79 34 98 41 19
7 44 17 55 21 50 21 241 79 325 98 126 30 301 52 409 52 223 0 438 -66 592
-182 70 -53 84 -47 76 36 -6 67 -11 83 -63 191 -71 152 -203 302 -348 398
-213 140 -387 188 -741 203 -93 3 -176 9 -182 13 -8 4 11 35 58 91 39 47 116
146 172 220 55 74 112 151 127 170 58 76 223 330 290 445 9 17 31 53 47 80 60
101 173 343 203 435 28 85 32 107 31 212 -1 245 -91 457 -267 630 -100 99
-206 166 -356 226 -32 13 -133 22 -168 15z"/>
<path d="M5995 4083 c-95 -14 -270 -99 -439 -213 -59 -39 -115 -78 -124 -85
-9 -8 -55 -44 -102 -81 -47 -37 -143 -126 -215 -198 -229 -230 -310 -384 -263
-493 57 -131 243 -313 321 -313 33 0 94 39 192 124 39 34 72 63 75 66 5 5 179
163 250 227 131 118 288 236 370 278 59 30 127 45 140 30 15 -18 -13 -99 -87
-245 -65 -128 -71 -139 -137 -250 -22 -36 -44 -74 -50 -85 -29 -54 -443 -683
-537 -815 -18 -25 -64 -90 -103 -145 -151 -213 -312 -422 -360 -468 -28 -26
-71 -67 -96 -90 -83 -77 -85 -160 -9 -322 75 -160 239 -334 391 -413 92 -49
106 -49 200 -4 98 47 218 100 273 122 11 4 31 12 45 18 73 30 145 55 210 73
19 6 51 15 70 20 354 102 672 103 914 3 77 -33 194 -102 217 -130 17 -21 47
-17 54 6 11 36 -32 186 -78 270 -98 177 -245 328 -410 419 -191 105 -360 144
-672 157 -94 4 -176 10 -183 13 -9 5 -8 12 5 26 10 11 38 45 63 75 25 30 47
57 50 60 56 55 408 554 503 714 137 232 233 425 275 551 32 98 37 128 37 226
-1 169 -42 315 -128 454 -157 256 -463 449 -662 418z"/>
<path d="M7124 4058 c-19 -22 -27 -37 -54 -103 -15 -38 -15 -259 1 -317 35
-131 93 -225 161 -259 41 -21 51 -21 243 -16 110 4 270 11 355 16 395 25 475
29 480 25 2 -3 -6 -14 -20 -24 -26 -20 -300 -160 -313 -160 -4 0 -26 -9 -50
-19 -79 -35 -158 -63 -257 -91 -25 -6 -55 -16 -68 -21 -13 -5 -44 -9 -70 -9
-82 0 -168 -33 -208 -79 -45 -51 -64 -106 -64 -185 0 -96 19 -171 71 -273 59
-119 57 -117 173 -98 173 27 445 12 631 -36 22 -6 56 -15 75 -19 81 -21 186
-54 195 -62 5 -4 15 -8 22 -8 37 0 283 -126 407 -208 90 -60 247 -202 317
-287 31 -38 100 -140 118 -177 18 -35 5 -64 -55 -123 -81 -80 -219 -136 -439
-177 -93 -17 -544 -17 -640 0 -166 30 -193 35 -245 49 -30 8 -68 18 -85 23
-256 68 -514 234 -600 387 -64 116 -82 251 -49 378 44 167 26 176 -101 50 -58
-57 -115 -126 -115 -138 0 -5 -8 -21 -18 -35 -23 -33 -49 -98 -69 -172 -29
-102 -16 -354 19 -394 4 -6 8 -16 8 -23 0 -50 130 -250 221 -342 152 -153 375
-278 607 -340 119 -31 163 -40 325 -61 100 -13 384 -13 484 0 114 15 203 30
246 40 161 42 200 55 332 116 226 105 447 334 507 528 48 156 48 216 -1 456
-9 42 -52 180 -70 225 -44 107 -173 344 -200 365 -3 3 -20 23 -36 45 -58 78
-205 213 -309 284 -57 39 -108 71 -111 71 -4 0 -19 8 -33 18 -36 25 -140 70
-237 103 -44 15 -80 33 -80 39 0 7 38 27 85 46 254 101 451 239 522 364 45 79
53 128 39 243 -7 56 -19 124 -27 151 -16 58 -80 190 -99 206 -9 8 -138 8 -446
0 -608 -14 -1361 -13 -1394 2 -14 6 -25 19 -25 30 0 25 -32 23 -56 -4z"/>
<path d="M2845 3927 c-83 -28 -113 -47 -140 -89 -40 -60 -77 -132 -104 -203
-13 -33 -26 -69 -31 -80 -39 -103 -91 -317 -119 -495 -98 -624 -33 -1238 175
-1653 35 -70 124 -208 157 -242 11 -11 26 -31 35 -44 36 -53 206 -182 307
-231 55 -28 108 -50 117 -50 9 0 19 -4 22 -9 3 -5 18 -11 33 -14 16 -3 62 -13
103 -23 59 -14 119 -18 275 -19 186 0 205 2 275 24 207 68 384 209 521 417 57
85 132 226 160 302 5 12 13 32 18 45 41 96 93 304 119 482 36 237 44 574 17
746 -44 287 -141 488 -316 654 -83 79 -118 104 -213 154 -176 93 -319 125
-557 124 -178 0 -211 -5 -296 -44 -24 -10 -47 -19 -51 -19 -5 0 -19 22 -31 50
-43 95 -136 177 -242 214 -50 18 -187 20 -234 3z m1005 -399 c110 -58 188
-181 238 -373 40 -153 55 -303 56 -545 1 -157 -3 -240 -12 -275 -7 -27 -18
-70 -24 -95 -16 -68 -76 -242 -88 -254 -8 -8 -39 18 -106 88 -270 278 -439
564 -500 846 -24 111 -13 325 19 356 4 4 7 14 7 21 0 21 64 117 102 154 46 44
109 86 138 92 40 9 143 -1 170 -15z m-579 -1098 c132 -253 302 -458 516 -622
41 -31 83 -60 94 -63 26 -8 24 -23 -9 -86 -121 -226 -281 -439 -332 -439 -35
0 -131 105 -169 185 -43 90 -56 123 -71 180 -39 147 -46 181 -70 360 -12 96
-14 573 -1 560 4 -6 24 -39 42 -75z"/>
</g>
</svg>
