<?xml version="1.0" standalone="no"?>
<!DOCTYPE svg PUBLIC "-//W3C//DTD SVG 20010904//EN"
 "http://www.w3.org/TR/2001/REC-SVG-20010904/DTD/svg10.dtd">
<svg version="1.0" xmlns="http://www.w3.org/2000/svg"
 width="32.000000pt" height="32.000000pt" viewBox="0 0 32.000000 32.000000"
 preserveAspectRatio="xMidYMid meet">
<metadata>
Created by potrace 1.16, written by Peter Selinger 2001-2019
</metadata>
<g transform="translate(0.000000,32.000000) scale(0.002473,-0.002936)"
fill="#000000" stroke="none">
<path d="M0 10890 c0 -7 2163 -10 6470 -10 4307 0 6470 3 6470 10 0 7 -2163
10 -6470 10 -4307 0 -6470 -3 -6470 -10z"/>
<path d="M7070 10796 c-658 -56 -1266 -217 -1859 -494 -1097 -514 -2003 -1402
-2538 -2487 -269 -546 -433 -1080 -512 -1670 -11 -82 -23 -181 -26 -218 l-7
-68 -71 -36 c-151 -78 -346 -135 -579 -168 -87 -13 -585 -38 -913 -48 l-90 -2
85 -57 c239 -159 472 -241 812 -284 l138 -18 -133 -54 c-535 -218 -1000 -511
-1302 -822 -55 -57 -65 -71 -45 -66 580 154 1075 248 1375 263 l120 5 -166
-84 c-91 -46 -217 -115 -280 -153 -116 -70 -271 -176 -266 -181 1 -2 104 26
227 62 405 116 677 174 826 174 122 0 356 -69 368 -108 3 -9 25 -93 50 -187
280 -1058 834 -1959 1651 -2686 765 -680 1731 -1135 2738 -1288 258 -40 412
-52 698 -58 595 -12 1041 45 1600 203 622 175 1209 466 1732 858 239 179 338
266 598 525 294 294 466 502 673 813 53 80 106 154 119 166 12 11 63 38 114
60 128 55 244 136 343 239 210 217 310 463 310 761 0 82 -6 162 -16 209 -15
76 -69 235 -97 290 -14 26 -13 38 9 133 73 319 104 605 111 1019 7 435 -12
687 -83 1074 -149 819 -523 1654 -1028 2297 -217 277 -541 617 -781 822 -425
361 -943 676 -1450 880 -483 195 -982 320 -1480 373 -205 22 -769 28 -975 11z
m735 -166 c392 -26 693 -74 1030 -166 746 -202 1386 -536 2002 -1043 163 -135
497 -467 639 -636 287 -342 500 -669 689 -1058 233 -478 370 -890 459 -1382
99 -550 101 -1200 5 -1795 -12 -74 -25 -138 -28 -142 -3 -3 -31 17 -63 45
l-56 52 19 125 c23 161 56 481 64 635 8 159 -11 560 -36 765 -116 936 -459
1767 -1038 2515 -278 359 -690 752 -1076 1026 -280 199 -668 415 -975 544
-439 184 -971 318 -1419 359 -253 23 -552 39 -616 32 -33 -3 -134 -10 -224
-16 -710 -40 -1416 -238 -2047 -572 -915 -486 -1652 -1227 -2137 -2148 -249
-473 -420 -991 -512 -1549 -26 -159 -25 -157 -117 -215 l-58 -36 5 27 c3 16
14 98 26 183 112 823 459 1665 970 2350 361 484 838 935 1328 1255 786 513
1678 805 2596 848 156 8 426 6 570 -3z m-455 -411 c90 -20 154 -88 180 -189 6
-25 13 -53 16 -62 5 -16 -3 -18 -79 -18 l-84 0 -17 44 c-20 52 -55 70 -117 60
-36 -6 -39 -9 -40 -40 -1 -19 -2 -39 -3 -46 -1 -6 35 -23 79 -38 189 -64 259
-128 280 -257 8 -50 -15 -148 -46 -195 -74 -114 -246 -150 -373 -80 -43 24
-56 38 -83 93 -18 35 -36 88 -41 117 l-9 53 90 -3 91 -3 9 -37 c14 -59 48 -88
101 -88 l45 0 16 54 c28 97 9 119 -140 164 -126 38 -195 125 -195 245 0 122
57 191 185 223 63 16 79 16 135 3z m764 -43 c103 -31 166 -117 166 -228 l0
-58 -61 0 c-33 0 -69 4 -79 10 -10 5 -26 32 -35 60 -14 44 -21 51 -54 61 -52
15 -101 -9 -101 -49 0 -39 6 -44 99 -93 156 -82 211 -150 211 -261 0 -212
-180 -340 -375 -267 -60 22 -114 69 -141 121 -9 18 -19 67 -22 113 l-5 81 89
-10 c84 -10 89 -12 92 -36 1 -14 10 -44 18 -67 19 -54 65 -73 113 -49 33 18
45 53 39 121 -3 39 -5 41 -86 82 -119 59 -158 89 -182 138 -24 50 -28 131 -9
194 17 56 74 118 124 136 52 18 140 19 199 1z m-1486 -96 c29 -17 65 -49 82
-71 34 -48 65 -123 57 -142 -3 -8 -33 -19 -69 -26 -34 -7 -72 -15 -83 -17 -17
-4 -23 2 -32 39 -11 42 -15 45 -58 56 -42 10 -50 10 -81 -10 -19 -11 -38 -28
-43 -37 -9 -18 9 -130 49 -300 20 -83 25 -96 54 -113 66 -42 144 1 153 85 6
46 6 46 57 60 104 29 111 29 124 1 15 -33 15 -107 0 -156 -17 -60 -70 -114
-150 -153 -58 -30 -82 -36 -132 -36 -97 0 -196 54 -246 135 -18 30 -100 418
-100 476 0 74 76 173 165 215 39 18 67 24 125 24 65 0 82 -4 128 -30z m2846
-290 c67 -25 143 -91 167 -145 21 -46 24 -126 8 -176 -31 -90 -253 -579 -264
-579 -15 0 -145 64 -145 71 0 15 33 94 134 323 53 120 96 228 96 241 0 47 -20
83 -51 89 -42 8 -88 -3 -104 -27 -8 -11 -66 -138 -131 -282 l-116 -262 -35 7
c-18 5 -58 20 -88 35 l-54 26 20 47 c206 482 264 588 348 632 49 26 144 26
215 0z m-4329 -462 c65 -112 141 -242 169 -290 28 -48 57 -88 63 -88 7 0 69
32 139 71 69 39 127 70 128 68 2 -2 22 -36 44 -76 l40 -71 -182 -103 c-99 -56
-195 -111 -212 -121 l-32 -19 -82 143 c-46 79 -141 243 -212 365 -71 123 -128
228 -126 234 3 9 124 86 139 88 3 1 58 -90 124 -201z m5005 73 c76 -29 125
-74 161 -147 64 -130 44 -185 -181 -489 -79 -106 -96 -122 -147 -141 -128 -45
-298 31 -359 161 -33 69 -33 156 0 216 25 47 151 231 218 318 73 95 191 126
308 82z m-5445 -265 c50 -23 104 -78 385 -384 l94 -103 -62 -62 -63 -62 -82
85 c-45 47 -139 147 -210 222 -77 82 -136 138 -150 140 -53 7 -87 -4 -103 -35
-33 -62 -19 -81 284 -400 61 -65 112 -126 112 -135 -1 -9 -30 -43 -65 -75
l-64 -58 -201 218 c-110 120 -212 224 -226 231 -34 18 -79 7 -104 -25 -43 -55
-42 -57 224 -342 94 -101 172 -186 174 -190 1 -3 -27 -35 -62 -70 l-63 -63
-214 227 c-118 125 -224 246 -236 269 -16 30 -22 59 -23 108 -1 148 78 248
218 278 37 9 52 16 52 28 0 29 48 121 77 148 79 75 211 96 308 50z m3334 -60
c523 -80 1031 -276 1467 -564 381 -253 651 -504 922 -859 293 -386 475 -754
621 -1259 28 -94 70 -304 62 -304 -33 0 -500 112 -671 161 -379 109 -865 297
-980 379 -17 12 -83 83 -146 158 -139 163 -148 172 -184 172 -27 0 -29 4 -36
47 -4 27 -18 64 -31 84 -37 57 -42 87 -63 399 -43 641 -64 734 -214 923 -262
332 -682 411 -1216 229 -344 -117 -757 -352 -1195 -677 -139 -104 -317 -244
-409 -321 -27 -23 -52 -35 -85 -39 -269 -32 -433 -89 -856 -295 -372 -182
-425 -200 -724 -245 -57 -9 -106 -13 -108 -11 -3 3 25 60 62 128 371 676 918
1205 1594 1542 359 180 722 295 1102 350 238 35 224 34 589 31 295 -2 341 -5
499 -29z m2734 -154 c130 -132 150 -167 149 -257 -1 -99 -15 -121 -219 -341
-108 -116 -156 -151 -226 -160 -99 -14 -185 30 -334 171 -86 80 -92 88 -79
107 8 10 121 134 252 275 132 140 243 262 247 270 10 16 67 53 83 53 5 0 63
-53 127 -118z m-2398 -472 c107 -31 174 -69 247 -142 120 -119 156 -226 177
-533 7 -93 16 -215 21 -269 5 -55 7 -103 5 -106 -2 -4 -37 -12 -77 -19 -95
-16 -172 -46 -530 -207 -163 -74 -299 -134 -302 -134 -4 0 -6 15 -6 33 0 23 8
41 28 59 44 42 167 117 266 163 103 48 317 125 347 125 15 0 19 5 15 18 -3 9
-8 34 -12 55 -3 22 -12 37 -20 37 -29 0 -247 -50 -331 -75 -104 -32 -243 -99
-317 -154 -67 -50 -108 -101 -148 -188 -29 -61 -33 -78 -33 -158 l0 -90 50 -9
c28 -5 52 -11 54 -13 2 -2 -14 -42 -37 -90 -49 -104 -72 -187 -72 -259 l0 -52
38 10 c20 5 75 27 121 49 46 22 85 38 87 37 1 -2 -1 -41 -5 -86 -7 -81 -6 -85
25 -140 39 -71 44 -71 202 -2 64 29 132 58 149 66 l33 14 -6 -30 c-4 -16 -3
-45 0 -64 l7 -35 70 24 c111 38 203 86 354 186 181 119 226 143 308 168 84 26
87 24 187 -95 86 -102 105 -117 250 -192 336 -176 943 -375 1495 -492 405 -85
481 -103 574 -135 53 -17 114 -41 136 -52 155 -80 229 -239 230 -493 0 -242
-62 -391 -229 -547 -92 -87 -173 -129 -313 -164 -179 -44 -778 -165 -1043
-209 -1523 -254 -2424 -342 -3535 -344 -457 -1 -522 1 -624 18 -200 33 -322
113 -371 242 -40 106 -102 461 -107 619 -5 133 -3 148 30 300 20 88 67 327
106 532 78 411 112 575 165 798 20 83 36 166 36 186 0 20 18 108 41 195 66
260 161 617 169 640 9 24 131 125 325 270 429 322 836 558 1160 674 216 77
464 102 610 60z m2960 -156 c61 -85 116 -163 123 -173 12 -17 7 -23 -51 -65
-36 -25 -69 -46 -74 -46 -5 0 -40 42 -78 93 -37 50 -72 96 -76 101 -4 4 -33
-9 -63 -30 -65 -45 -66 -56 -15 -135 16 -25 29 -48 29 -52 0 -3 -29 -26 -65
-51 -36 -25 -65 -42 -65 -38 0 4 -20 33 -45 65 l-46 57 -47 -31 c-53 -36 -92
-69 -92 -79 0 -3 32 -50 70 -104 39 -54 70 -102 70 -106 0 -6 -63 -52 -126
-92 -8 -5 -47 42 -111 130 -136 188 -145 201 -141 212 4 12 669 498 683 499 6
0 60 -70 120 -155z m-7500 91 c30 -22 55 -44 55 -48 0 -4 -23 -40 -50 -80 -48
-67 -50 -72 -33 -85 10 -7 134 -97 275 -199 241 -173 257 -186 246 -207 -17
-34 -79 -116 -87 -116 -4 0 -128 88 -276 195 -149 107 -274 195 -280 194 -5 0
-30 -29 -54 -64 -26 -40 -50 -65 -61 -65 -15 0 -87 47 -124 80 -9 9 17 49 124
195 37 50 92 125 124 168 33 45 63 77 71 75 8 -2 39 -21 70 -43z m-60 -831
c317 -170 295 -156 295 -185 0 -22 -55 -127 -80 -153 -5 -5 -56 18 -117 51
-118 64 -184 96 -189 91 -3 -4 -44 -98 -44 -103 0 -2 44 -27 98 -54 53 -28
118 -64 145 -81 l47 -30 -34 -67 c-61 -121 -28 -124 -312 25 -450 236 -489
258 -492 280 -4 23 48 132 73 152 15 12 35 5 165 -63 l148 -77 26 46 c14 26
26 50 26 54 0 4 -67 45 -150 90 l-149 83 16 31 c8 17 31 57 50 89 l35 57 116
-61 c65 -34 212 -113 327 -175z m7225 -4 c14 -14 20 -33 20 -62 0 -54 -7 -63
-52 -82 -36 -15 -38 -15 -68 10 -45 38 -54 60 -39 95 22 55 101 77 139 39z
m298 -238 l35 -82 -42 -36 c-37 -32 -42 -41 -39 -73 3 -32 7 -37 39 -45 39
-10 84 8 436 172 l172 80 40 -91 c22 -51 37 -95 33 -98 -17 -16 -471 -222
-540 -245 -59 -20 -89 -25 -129 -21 -141 15 -247 131 -245 268 1 68 18 112 63
164 37 42 117 97 133 92 5 -2 25 -40 44 -85z m-5308 6 c0 -7 -40 -166 -89
-353 -49 -187 -94 -377 -100 -422 -6 -45 -22 -129 -36 -185 -35 -135 -112
-512 -170 -823 -26 -137 -67 -342 -92 -455 -43 -189 -46 -215 -46 -340 0 -151
34 -376 75 -499 l24 -69 -55 -6 c-190 -23 -373 -105 -566 -256 -71 -56 -157
-116 -190 -134 -58 -30 -64 -31 -180 -31 -120 1 -120 1 -308 63 -255 85 -301
91 -445 62 -62 -12 -115 -20 -118 -18 -7 8 186 111 274 146 75 30 111 37 335
63 380 44 403 50 534 141 43 30 111 72 150 93 40 20 91 57 113 81 38 41 40 47
40 105 0 80 -17 134 -53 170 -67 67 -169 22 -410 -180 -195 -163 -252 -206
-301 -226 -52 -22 -221 -20 -341 5 -53 11 -113 20 -132 20 -58 0 -181 -30
-373 -90 -208 -65 -317 -90 -396 -90 -101 0 -255 40 -387 100 l-60 27 124 7
c217 12 350 44 694 166 311 110 425 140 529 140 188 0 375 108 447 259 33 70
36 182 7 240 -39 76 -115 99 -224 66 -80 -24 -222 -114 -483 -309 -135 -101
-280 -205 -321 -230 -165 -102 -259 -108 -598 -41 -267 52 -426 69 -577 60
l-110 -6 44 21 c119 56 272 90 566 125 283 34 494 69 575 96 62 20 170 81 170
96 1 5 5 28 9 53 11 54 -10 106 -72 176 -137 156 -317 120 -715 -144 -187
-124 -265 -162 -330 -162 -20 0 -116 13 -212 29 -298 51 -322 54 -464 41 -70
-6 -151 -15 -179 -20 -27 -6 -55 -10 -61 -10 -22 1 211 130 284 159 104 40
156 49 364 66 296 25 338 44 656 293 224 175 332 232 442 232 102 0 170 -30
338 -150 201 -143 274 -169 422 -150 228 30 443 181 492 346 5 15 -2 31 -21
54 -42 50 -94 70 -189 70 -72 0 -89 -4 -139 -30 -32 -17 -87 -53 -122 -81 -35
-27 -84 -63 -108 -78 -41 -26 -49 -28 -92 -20 -59 11 -149 53 -278 129 -144
85 -202 104 -305 104 -103 0 -158 -22 -267 -107 -371 -288 -616 -351 -998
-256 -44 11 -84 24 -88 28 -4 5 23 11 60 15 165 17 329 63 468 131 92 46 208
128 378 268 180 148 316 213 467 224 100 7 173 -12 330 -88 222 -108 273 -118
383 -74 35 14 124 68 198 120 74 52 154 102 179 112 63 23 122 64 137 93 7 14
13 44 13 67 0 37 -5 46 -37 70 -32 24 -45 28 -102 27 -86 -1 -151 -31 -285
-129 -117 -85 -199 -125 -255 -125 -21 0 -87 15 -147 34 -252 80 -367 83 -619
20 -28 -7 -27 -5 18 35 94 81 172 106 371 121 224 17 250 27 480 180 223 149
369 207 577 230 126 14 292 56 414 105 50 20 191 86 315 147 284 139 436 202
575 238 120 32 175 37 175 18z m2506 -214 c-84 -79 -666 -514 -666 -498 0 20
50 81 112 139 66 61 333 261 425 318 54 34 173 97 181 97 4 -1 -19 -26 -52
-56z m418 -146 c-14 -77 -118 -180 -314 -310 -95 -63 -421 -231 -528 -272
l-43 -16 7 37 c3 21 23 88 43 148 l36 110 120 72 c149 90 354 194 460 233 60
22 98 29 152 30 l73 0 -6 -32z m3095 -158 c138 -70 184 -283 86 -397 -29 -35
-150 -111 -160 -101 -2 2 -13 37 -25 78 l-21 75 22 15 c63 44 71 59 64 108 -8
56 -10 59 -57 67 -31 6 -38 4 -51 -17 -8 -12 -17 -59 -20 -103 -3 -44 -13
-104 -23 -133 -21 -65 -84 -138 -139 -163 -51 -24 -177 -26 -229 -4 -122 51
-194 214 -152 343 10 30 33 66 55 89 37 37 155 102 166 91 7 -7 45 -144 45
-162 0 -7 -13 -19 -30 -26 -79 -33 -101 -93 -56 -148 23 -27 28 -28 73 -22 26
4 56 11 65 15 21 9 34 54 43 153 13 147 62 218 175 253 49 15 130 10 169 -11z
m105 -2355 c373 -108 603 -412 583 -770 -12 -203 -91 -377 -243 -528 -109
-109 -243 -186 -399 -228 -66 -18 -107 -22 -230 -22 -182 0 -259 17 -415 95
-92 45 -117 64 -201 148 -81 81 -102 109 -142 190 -65 132 -80 206 -74 355 6
137 26 217 88 335 67 129 54 121 299 174 118 26 242 56 275 67 65 21 154 77
250 158 71 60 86 62 209 26z m-9454 -571 c11 -17 40 -87 64 -155 216 -609 600
-1237 1052 -1724 330 -355 744 -687 1157 -929 617 -362 1259 -576 1992 -667
218 -27 677 -37 920 -20 990 68 1947 433 2737 1044 408 314 720 638 1037 1073
l58 81 84 6 c45 4 84 5 85 4 4 -4 -140 -210 -213 -305 -281 -362 -657 -739
-988 -988 -731 -551 -1579 -903 -2455 -1018 -255 -34 -373 -41 -700 -41 -352
0 -459 8 -755 51 -947 140 -1837 540 -2585 1163 -149 124 -455 424 -582 571
-117 134 -338 426 -430 567 -163 249 -325 552 -442 828 -61 142 -226 617 -226
648 0 15 165 -149 190 -189z m7909 60 c119 -128 177 -244 207 -417 59 -339
-131 -692 -463 -860 -100 -51 -217 -79 -357 -84 -147 -7 -232 5 -349 48 -202
73 -367 222 -457 414 -55 116 -73 199 -73 335 -1 132 21 226 77 338 60 119 25
105 416 162 190 28 458 70 595 94 344 61 318 62 404 -30z m-4764 -155 c49 -51
110 -82 211 -109 118 -31 226 -40 471 -40 l222 0 41 -72 c188 -339 128 -749
-149 -1010 -119 -113 -235 -179 -386 -219 -109 -29 -318 -31 -420 -5 -188 49
-375 169 -480 308 -172 228 -214 540 -109 803 83 207 278 401 473 470 l36 12
25 -49 c14 -27 43 -67 65 -89z m2827 -66 c45 -48 87 -111 127 -192 95 -188 96
-456 2 -656 -40 -86 -143 -218 -220 -282 -65 -54 -201 -127 -294 -157 -83 -28
-187 -39 -302 -33 -153 8 -270 45 -392 123 -271 172 -405 451 -363 754 15 112
41 186 101 291 l49 86 133 7 c318 17 1046 78 1117 95 3 0 22 -16 42 -36z
m-3830 -265 c-33 -101 -45 -174 -51 -321 l-6 -139 -91 114 c-50 62 -126 160
-168 218 l-77 105 98 7 c95 6 224 40 283 72 14 8 27 13 29 11 1 -2 -6 -32 -17
-67z m-432 -395 c28 -43 50 -81 50 -86 0 -12 -449 -307 -515 -338 -137 -66
-286 -21 -363 110 -23 39 -27 57 -27 121 0 53 6 85 18 108 24 45 84 110 116
127 26 13 27 12 75 -61 l48 -73 -30 -39 c-41 -52 -48 -82 -24 -112 33 -41 72
-23 340 156 136 90 250 164 255 164 4 0 30 -35 57 -77z m235 -312 c102 -45
197 -174 198 -270 1 -57 -29 -125 -74 -171 -43 -44 -383 -359 -427 -396 l-34
-27 -56 57 -57 57 124 119 124 119 -51 59 c-80 92 -75 90 -126 48 -24 -20 -80
-69 -124 -111 l-79 -74 -56 50 c-32 28 -57 58 -57 68 0 30 449 452 514 483 49
23 114 19 181 -11z m4350 -109 c104 -120 240 -217 390 -278 44 -18 81 -37 83
-42 6 -19 -318 -191 -503 -267 -354 -147 -689 -232 -1085 -276 -187 -21 -593
-16 -785 10 -301 40 -558 102 -804 193 -126 46 -126 42 -6 78 91 28 192 76
287 138 103 68 253 218 316 317 84 132 70 127 125 46 162 -236 439 -407 740
-456 433 -70 876 124 1118 489 32 49 59 93 59 98 0 18 17 5 65 -50z m-3884
-284 c32 -24 59 -47 59 -51 0 -4 -39 -97 -86 -205 -88 -203 -111 -268 -90
-255 6 4 74 59 151 123 77 64 161 132 186 153 l46 37 59 -45 c33 -25 60 -49
62 -54 1 -4 -19 -26 -45 -48 -91 -76 -612 -501 -622 -508 -13 -7 -130 74 -131
91 0 10 321 772 335 794 9 15 13 13 76 -32z m4619 -327 c22 -38 40 -72 40 -75
0 -2 -28 -21 -62 -42 -94 -56 -90 -50 -66 -97 25 -49 281 -479 310 -520 11
-16 18 -30 16 -31 -16 -15 -140 -88 -142 -85 -21 26 -126 194 -219 349 -64
107 -122 204 -130 214 -14 19 -17 18 -96 -26 l-81 -46 -34 61 c-19 34 -38 69
-41 78 -5 13 21 32 111 84 64 37 166 99 228 136 61 38 114 69 118 69 4 0 25
-31 48 -69z m-3878 -140 c66 -32 132 -93 158 -147 18 -36 21 -57 18 -102 -4
-49 -26 -98 -154 -349 -82 -161 -152 -293 -156 -293 -15 0 -138 65 -138 72 0
5 32 71 70 148 39 77 70 144 70 150 0 10 -151 90 -170 90 -5 0 -42 -64 -81
-142 -39 -79 -73 -144 -74 -146 -2 -2 -37 11 -79 29 -71 30 -75 33 -70 58 8
35 270 548 301 589 42 56 86 73 178 69 57 -3 94 -10 127 -26z m3189 -196 c64
-22 113 -67 144 -130 69 -140 5 -291 -156 -372 l-57 -28 54 -144 c30 -78 54
-146 54 -150 0 -9 -169 -76 -175 -69 -10 10 -293 752 -297 778 -3 23 6 28 127
77 111 45 140 53 196 53 36 0 86 -7 110 -15z m-2591 -40 c64 -8 139 -52 174
-103 24 -34 31 -56 34 -107 2 -36 1 -80 -2 -99 l-6 -34 -73 22 c-77 24 -73 20
-92 108 -6 33 -49 58 -99 58 -31 0 -36 -4 -46 -35 -6 -19 -9 -39 -5 -45 3 -5
41 -37 84 -70 92 -69 146 -129 162 -178 16 -50 6 -159 -20 -209 -28 -56 -95
-119 -148 -139 -99 -38 -266 15 -328 104 -26 39 -30 54 -34 128 -1 46 0 95 3
108 7 27 14 26 127 -10 l46 -15 6 -55 c8 -80 27 -104 81 -104 39 0 47 4 64 33
50 81 41 104 -80 195 -46 34 -94 78 -107 98 -62 91 -22 267 75 330 28 19 88
33 119 28 11 -2 40 -6 65 -9z m2094 -477 c44 -221 81 -410 83 -418 4 -13 -10
-19 -69 -29 -40 -8 -81 -17 -90 -22 -15 -8 -20 -1 -32 43 -23 79 -158 789
-152 795 8 8 116 31 151 32 l31 1 78 -402z m-1289 314 c92 -47 145 -135 145
-242 l0 -70 -84 0 -85 0 -3 52 c-3 51 -4 52 -50 76 -60 31 -111 25 -132 -16
-14 -27 -56 -297 -56 -359 0 -45 28 -73 77 -80 69 -9 90 1 114 57 16 37 26 49
38 46 9 -3 46 -8 84 -12 l67 -6 0 -37 c0 -143 -109 -233 -281 -234 -125 -1
-214 54 -262 163 -25 57 -25 135 2 305 37 227 47 259 97 305 66 61 125 81 224
76 41 -2 80 -11 105 -24z m734 -12 c83 -36 128 -138 119 -269 -5 -73 -23 -114
-76 -179 l-35 -43 28 -59 c16 -33 54 -104 86 -157 l57 -98 -36 -7 c-20 -4 -63
-7 -94 -7 l-57 -1 -52 88 c-65 107 -150 235 -154 230 -1 -2 3 -77 9 -168 7
-91 12 -166 11 -168 -2 -1 -41 -6 -88 -9 -85 -6 -86 -6 -91 18 -3 13 -19 191
-36 394 -17 204 -32 384 -33 402 -3 32 -3 32 53 38 30 3 62 8 70 9 8 2 73 4
143 5 109 1 136 -2 176 -19z"/>
<path d="M9998 9230 c-38 -21 -164 -190 -208 -281 -21 -42 -21 -47 -6 -82 27
-66 119 -84 181 -35 14 11 61 72 105 136 84 122 92 145 69 211 -7 21 -24 38
-50 51 -46 24 -45 24 -91 0z"/>
<path d="M10485 8618 c-196 -211 -185 -192 -144 -234 28 -29 40 -34 80 -34
l47 0 136 145 c75 80 136 150 136 155 0 37 -68 131 -94 130 -6 -1 -78 -73
-161 -162z"/>
<path d="M7019 6101 c-129 -41 -237 -130 -284 -233 -63 -141 -29 -321 78 -414
l44 -39 -56 -17 c-63 -20 -113 -23 -140 -8 -10 5 -26 35 -36 67 -29 95 -52
131 -95 153 -52 27 -104 25 -168 -5 -38 -17 -71 -25 -111 -25 -96 0 -159 -24
-217 -84 -40 -41 -54 -64 -64 -105 -23 -95 8 -200 78 -263 23 -21 53 -40 67
-44 23 -6 25 -11 25 -63 1 -63 12 -88 55 -123 49 -40 64 -46 109 -37 22 5 112
8 200 9 142 0 162 2 196 21 28 16 47 20 73 15 43 -8 49 -16 71 -92 l18 -61
-35 -46 c-76 -100 -95 -250 -45 -358 69 -150 219 -239 405 -239 93 0 201 29
272 74 43 28 102 93 134 149 19 35 24 37 52 30 66 -17 167 -8 230 20 60 28 61
28 125 13 72 -17 146 -20 201 -7 35 8 36 7 49 -28 30 -85 96 -141 168 -141 65
0 129 36 204 113 37 39 86 78 109 89 24 10 58 30 75 43 l33 25 52 -27 c76 -38
173 -43 270 -13 l73 22 35 -20 c35 -20 38 -20 156 -2 66 10 131 22 145 28 54
22 110 73 136 124 23 45 25 60 21 122 -9 135 -28 269 -41 294 -12 23 -9 27 42
75 66 63 93 113 99 187 7 73 -8 117 -58 174 -38 43 -40 48 -30 78 14 38 14
102 1 147 -7 25 -6 40 5 62 8 15 15 51 15 79 0 94 -58 166 -157 196 -98 30
-217 -25 -263 -122 -19 -38 -32 -51 -74 -70 l-51 -23 -65 32 c-54 27 -78 33
-151 35 -57 3 -107 -2 -148 -12 -35 -9 -67 -14 -71 -11 -5 3 -11 18 -15 34 -3
16 -19 49 -35 74 -53 85 -157 113 -262 73 -32 -13 -59 -16 -85 -12 -110 19
-110 19 -168 -12 l-56 -31 -45 20 c-68 28 -118 25 -189 -15 -69 -38 -120 -99
-137 -162 l-12 -44 -61 0 -62 0 -33 87 c-52 139 -148 220 -298 252 -81 17
-237 13 -303 -8z m339 -141 c125 -55 186 -199 133 -316 -20 -44 -53 -72 -114
-98 -45 -18 -44 -21 8 -126 65 -129 150 -218 243 -254 59 -22 83 -20 164 14
42 18 88 30 114 30 42 0 44 -1 55 -40 15 -50 2 -78 -56 -121 -57 -42 -134 -62
-216 -57 -180 13 -325 161 -425 436 -29 78 -42 102 -56 102 -15 0 -18 -8 -18
-42 0 -50 5 -59 43 -76 20 -8 27 -17 23 -28 -3 -9 -6 -24 -6 -34 0 -27 -73
-114 -126 -150 l-46 -32 -28 27 -29 28 23 46 c33 65 36 98 27 257 -7 129 -10
143 -34 179 -15 22 -27 43 -27 47 0 30 152 52 178 26 8 -8 9 -35 5 -86 l-6
-75 57 5 c70 6 106 30 125 85 13 37 13 43 -6 79 -30 57 -92 86 -185 86 -109 0
-188 -41 -218 -113 -11 -25 -8 -35 29 -102 52 -94 53 -119 6 -135 -44 -17 -85
2 -120 56 -100 153 -12 342 185 397 82 22 230 15 298 -15z m1261 -68 c17 -33
22 -86 9 -111 -27 -51 -107 -52 -133 -1 -21 40 -19 72 6 104 16 21 29 26 64
26 32 0 47 -5 54 -18z m-288 -19 c18 -46 29 -139 37 -316 10 -197 19 -220 90
-225 60 -5 72 19 72 135 l0 94 -30 6 c-17 3 -32 9 -35 12 -13 23 95 131 130
131 18 0 33 -70 41 -194 7 -106 8 -111 41 -146 48 -54 45 -76 -13 -84 -89 -12
-154 -7 -183 13 -27 19 -27 19 -50 -5 -12 -13 -38 -26 -58 -30 -37 -7 -151 0
-161 10 -3 4 3 23 12 44 32 65 34 87 24 252 -9 156 -10 164 -34 182 -47 38
-26 82 60 130 41 23 45 22 57 -9z m-240 -285 c5 -103 13 -197 18 -210 5 -13
21 -34 35 -47 61 -57 7 -87 -146 -83 -44 2 -48 4 -48 27 0 15 7 40 16 57 14
27 15 56 9 210 l-7 178 -29 21 c-16 11 -29 26 -29 33 0 24 41 66 88 90 l47 24
18 -56 c13 -40 21 -113 28 -244z m1514 277 c30 -29 33 -70 6 -85 -11 -5 -38
-10 -61 -10 l-41 0 51 -62 c100 -124 71 -192 -103 -243 -33 -9 -61 -24 -67
-35 -9 -16 -5 -20 22 -28 18 -5 62 -5 98 -1 104 13 162 -13 189 -82 14 -38
-20 -102 -73 -139 -122 -83 -331 -76 -374 13 -17 36 -7 64 29 83 33 16 34 16
102 -37 63 -50 78 -54 131 -30 33 14 47 27 52 47 11 45 -13 54 -150 54 -109 0
-122 2 -143 22 -32 30 -29 64 7 95 17 13 30 29 30 35 0 6 -13 26 -30 45 -37
42 -43 99 -15 154 15 28 95 64 167 75 34 6 39 10 34 28 -19 66 -19 72 14 99
41 35 92 36 125 2z m-704 -177 c20 -35 24 -39 27 -22 4 28 70 64 116 64 25 0
45 -8 67 -28 27 -24 32 -36 40 -112 8 -61 17 -96 35 -122 31 -48 30 -66 -4
-103 -49 -53 -83 -75 -119 -75 -29 0 -34 3 -29 17 15 38 19 212 6 257 -7 25
-15 46 -17 46 -8 0 -93 -22 -93 -24 0 -1 -5 -28 -10 -59 -12 -65 -1 -103 51
-168 l31 -39 -29 -11 c-15 -6 -63 -14 -106 -17 -65 -4 -81 -2 -97 13 -19 18
-19 18 15 56 37 42 40 58 29 157 -5 38 -11 52 -23 52 -35 0 -43 15 -32 57 9
32 21 47 59 72 26 17 50 31 53 31 3 0 16 -19 30 -42z m-1154 -50 c145 -36 192
-250 80 -366 -39 -40 -93 -56 -161 -47 -65 9 -99 29 -134 79 -38 55 -44 165
-13 229 26 55 58 85 108 102 48 18 63 18 120 3z m-1260 -184 c-8 -50 -20 -61
-77 -68 l-50 -7 6 -112 c5 -88 10 -118 25 -140 20 -27 20 -28 -1 -56 -30 -43
-78 -81 -102 -81 -17 0 -19 4 -14 28 16 65 18 177 4 196 -14 18 -16 18 -42 1
-23 -15 -32 -16 -67 -6 -71 21 -98 98 -61 170 27 54 71 71 180 71 79 0 98 3
119 20 14 11 39 20 56 20 28 0 29 -1 24 -36z m33 -122 c0 -73 5 -79 63 -75 29
2 58 0 65 -5 8 -5 17 -37 21 -70 4 -37 15 -69 26 -82 18 -20 18 -21 -19 -59
-28 -29 -43 -37 -62 -33 -17 3 -23 9 -20 21 15 49 17 94 6 125 -12 38 -20 42
-51 26 -26 -14 -25 -78 1 -123 25 -42 17 -47 -66 -47 -59 0 -64 7 -35 48 17
25 18 35 9 127 -7 67 -16 103 -26 111 -12 9 -11 16 7 52 20 39 22 41 51 31 26
-10 30 -16 30 -47z m383 -74 c31 -16 46 -39 47 -69 0 -37 -28 -57 -85 -61 -40
-2 -51 -7 -53 -22 -4 -20 -11 -20 103 0 43 8 47 -11 12 -52 -19 -22 -33 -27
-70 -28 -85 -2 -143 73 -118 153 19 66 46 91 97 91 25 0 55 -5 67 -12z m437
-178 c37 -40 60 -91 60 -134 0 -29 -5 -38 -29 -50 -26 -14 -30 -14 -49 7 -12
12 -45 37 -75 55 -49 29 -56 31 -88 21 -42 -14 -56 -27 -64 -59 -9 -37 11 -51
150 -105 66 -26 138 -59 160 -74 81 -53 127 -210 90 -308 -23 -60 -86 -128
-150 -161 -45 -24 -61 -27 -155 -27 -94 0 -110 3 -155 27 -101 53 -148 122
-148 218 0 70 30 130 85 170 52 38 131 42 184 9 31 -19 32 -22 22 -47 -18 -42
-26 -49 -62 -56 -53 -10 -86 -41 -86 -82 0 -82 55 -127 155 -128 111 -2 185
61 185 156 0 107 -37 145 -206 211 -179 70 -229 123 -204 216 12 47 59 105
101 127 16 8 67 18 114 23 47 5 89 11 92 15 15 14 47 4 73 -24z m2222 -116
c22 -47 27 -69 20 -76 -18 -18 -70 -11 -117 16 -58 34 -75 34 -75 -3 0 -27 5
-31 53 -47 120 -39 157 -70 156 -128 -2 -65 -12 -89 -49 -111 -20 -11 -64 -23
-100 -27 -36 -4 -80 -10 -98 -14 -34 -7 -38 -4 -79 54 -24 34 -34 100 -16 106
27 11 47 6 114 -29 81 -42 97 -43 105 -10 10 39 1 49 -59 68 -88 28 -141 54
-155 77 -21 35 -5 99 33 137 30 30 39 33 92 34 32 0 67 4 78 9 50 21 65 13 97
-56z m-451 10 c86 -35 130 -151 76 -202 -25 -24 -103 -42 -178 -42 -27 0 -49
-4 -49 -10 0 -19 40 -50 63 -50 13 0 50 9 82 20 32 11 69 20 82 20 19 0 23 -5
23 -33 0 -44 -21 -70 -75 -96 -55 -26 -117 -27 -170 -2 -78 36 -112 86 -121
179 -10 91 39 186 111 218 41 18 107 17 156 -2z m-403 -40 c20 -15 45 -50 59
-81 35 -76 31 -180 -10 -241 -37 -57 -71 -77 -130 -77 -41 0 -53 4 -73 28 -44
51 -26 87 42 87 34 0 45 5 60 27 9 15 19 49 22 74 4 41 1 51 -21 73 -32 32
-84 35 -118 7 -23 -18 -24 -25 -24 -144 0 -123 0 -126 28 -154 15 -16 27 -37
27 -46 0 -22 -75 -104 -111 -123 -16 -8 -38 -14 -50 -14 -21 0 -22 2 -15 96 4
53 4 152 0 221 -7 123 -7 124 -35 139 -39 20 -38 52 4 91 57 55 100 67 123 36
12 -17 15 -17 56 4 61 31 122 30 166 -3z m-870 -48 c36 -19 46 -44 33 -79 -14
-37 -22 -38 -80 -17 -28 11 -67 20 -86 20 -29 0 -37 -5 -47 -27 -17 -44 -14
-114 6 -146 26 -38 55 -42 132 -18 93 29 94 29 94 -22 0 -67 -53 -108 -145
-110 -72 -2 -125 24 -167 82 -28 40 -33 56 -36 117 -3 60 0 78 22 121 28 57
68 90 129 108 44 13 76 7 145 -29z m360 30 c96 -50 133 -196 77 -305 -32 -65
-75 -91 -162 -98 -64 -5 -70 -3 -110 26 -50 36 -82 94 -90 160 -9 82 38 184
100 215 40 20 149 21 185 2z"/>
<path d="M9369 5629 c-26 -26 -21 -57 13 -82 26 -19 29 -19 70 -3 71 27 71 28
52 69 -17 35 -20 37 -66 37 -35 0 -54 -6 -69 -21z"/>
<path d="M7635 5526 c-33 -33 -41 -71 -26 -125 15 -61 44 -85 94 -78 21 3 44
10 52 17 36 30 29 147 -10 186 -32 32 -78 32 -110 0z"/>
<path d="M8060 4827 c-31 -16 -45 -67 -36 -131 9 -56 37 -86 82 -86 75 0 111
78 78 169 -14 41 -22 50 -47 55 -41 8 -48 8 -77 -7z"/>
<path d="M4431 2526 l-44 -45 41 -48 c22 -26 52 -59 67 -73 l26 -25 50 52 c31
33 49 60 49 76 0 47 -69 107 -122 107 -15 0 -40 -17 -67 -44z"/>
<path d="M5657 1723 c-10 -3 -31 -32 -48 -65 -35 -69 -41 -59 69 -115 71 -37
74 -37 87 -19 26 34 48 104 41 130 -9 38 -102 80 -149 69z"/>
<path d="M8843 1499 c-18 -5 -33 -15 -33 -22 0 -18 41 -140 50 -150 11 -12
109 32 120 54 13 24 12 73 -2 104 -10 22 -17 25 -57 24 -25 0 -61 -5 -78 -10z"/>
<path d="M7731 1322 c-24 -4 -24 -4 -18 -104 4 -55 8 -103 11 -105 7 -7 120
18 137 30 8 7 23 24 33 39 25 39 5 106 -38 123 -38 15 -93 23 -125 17z"/>
</g>
</svg>
